<svg xmlns="http://www.w3.org/2000/svg" width="32" height="24.574" viewBox="0 0 32 24.574"><path fill="#fff" d="M8.825 9.148c-.479 1.196-.06 1.943 1.256 2.242 1.016.239 2.018.838 3.004 1.794.987.957 1.48 2.421 1.48 4.395 0 .838-.15 1.659-.449 2.466-.3.808-.748 1.54-1.345 2.197-.598.659-1.331 1.197-2.197 1.615-.867.419-1.869.627-3.004.627-2.094 0-3.827-.807-5.202-2.421-1.376-1.614-2.063-3.646-2.063-6.099 0-3.767 1.166-6.996 3.498-9.687 2.331-2.689 5.321-4.781 8.968-6.277l2.063 3.768c-1.376.658-2.616 1.45-3.722 2.376-1.107.927-1.869 1.928-2.287 3.004zm16.861.09c-.479 1.196-.061 1.943 1.255 2.242 1.016.239 2.018.838 3.004 1.794.987.957 1.48 2.421 1.48 4.395 0 .838-.15 1.659-.448 2.466-.3.808-.749 1.54-1.345 2.197-.599.659-1.332 1.197-2.198 1.614-.867.419-1.869.628-3.004.628-2.093 0-3.827-.807-5.202-2.421-1.376-1.614-2.063-3.646-2.063-6.099 0-3.768 1.166-6.996 3.498-9.687 2.332-2.69 5.321-4.783 8.969-6.278l2.063 3.768c-1.376.658-2.616 1.45-3.722 2.376-1.107.928-1.869 1.929-2.287 3.005z"/></svg>