<?xml version="1.0" encoding="utf-8"?>
<!-- Generator: Adobe Illustrator 16.0.0, SVG Export Plug-In . SVG Version: 6.00 Build 0)  -->
<!DOCTYPE svg PUBLIC "-//W3C//DTD SVG 1.1//EN" "http://www.w3.org/Graphics/SVG/1.1/DTD/svg11.dtd">
<svg version="1.1" id="Capa_1" xmlns="http://www.w3.org/2000/svg" xmlns:xlink="http://www.w3.org/1999/xlink" x="0px" y="0px"
	 width="31.999px" height="32px" viewBox="32.063 32.062 31.999 32" enable-background="new 32.063 32.062 31.999 32"
	 xml:space="preserve">
<g>
	<path fill="#FFFFFF" d="M56.061,32.068l-4.15-0.007c-4.662,0-7.675,3.091-7.675,7.875v3.631h-4.172
		c-0.361,0-0.653,0.292-0.653,0.653v5.261c0,0.36,0.292,0.652,0.653,0.652h4.172v13.275c0,0.36,0.292,0.652,0.653,0.652h5.444
		c0.36,0,0.652-0.292,0.652-0.652V50.134h4.878c0.361,0,0.653-0.292,0.653-0.652l0.002-5.261c0-0.173-0.069-0.339-0.191-0.461
		s-0.289-0.191-0.462-0.191h-4.88V40.49c0-1.479,0.353-2.23,2.279-2.23l2.796-0.001c0.36,0,0.652-0.292,0.652-0.653v-4.885
		C56.712,32.361,56.42,32.069,56.061,32.068z"/>
</g>
</svg>
