<?xml version="1.0" encoding="utf-8"?>
<!-- Generator: Adobe Illustrator 16.0.0, SVG Export Plug-In . SVG Version: 6.00 Build 0)  -->
<!DOCTYPE svg PUBLIC "-//W3C//DTD SVG 1.1//EN" "http://www.w3.org/Graphics/SVG/1.1/DTD/svg11.dtd">
<svg version="1.1" id="Layer_1" xmlns="http://www.w3.org/2000/svg" xmlns:xlink="http://www.w3.org/1999/xlink" x="0px" y="0px"
	 width="44.742px" height="54.115px" viewBox="0 0 44.742 54.115" enable-background="new 0 0 44.742 54.115" xml:space="preserve">
<g>
	<g>
		<path fill="#444444" d="M15.886,10.916c0.657-0.164,1.285-0.15,1.888,0.041c0.601,0.192,1.135,0.507,1.6,0.944
			c0.464,0.438,0.848,0.958,1.149,1.559c0.3,0.603,0.451,1.26,0.451,1.97c0,1.369-0.492,2.503-1.478,3.406
			c-0.985,0.903-2.189,1.354-3.611,1.354c-1.916,0-3.338-0.698-4.268-2.093c-0.931-1.396-1.396-3.187-1.396-5.375
			c0-2.955,0.698-5.54,2.093-7.756c1.395-2.216,3.57-3.87,6.524-4.966l1.149,1.56c-2.134,0.985-3.722,2.216-4.76,3.693
			c-1.041,1.478-1.56,3.119-1.56,4.924c0,0.603,0.124,0.958,0.37,1.067c0.246,0.11,0.533,0.11,0.861,0L15.886,10.916z
			 M29.018,10.916c1.258-0.273,2.407,0.056,3.447,0.985c1.039,0.931,1.56,2.107,1.56,3.529c0,1.369-0.479,2.503-1.437,3.406
			c-0.957,0.903-2.148,1.354-3.57,1.354c-1.916,0-3.352-0.698-4.309-2.093c-0.958-1.396-1.436-3.187-1.436-5.375
			c0-2.955,0.71-5.54,2.134-7.756C26.829,2.75,29.018,1.096,31.973,0l1.148,1.56c-2.133,0.985-3.734,2.216-4.801,3.693
			c-1.067,1.478-1.6,3.119-1.6,4.924c0,0.603,0.123,0.958,0.369,1.067c0.246,0.11,0.561,0.11,0.943,0L29.018,10.916z"/>
	</g>
	<g>
		<path fill="#444444" d="M15.234,34.123c0-0.484-0.223-0.879-0.668-1.184s-1.184-0.582-2.215-0.832l0.352-0.867
			c0.391,0.047,0.816,0.105,1.277,0.176s0.918,0.148,1.371,0.234s0.883,0.168,1.289,0.246s0.758,0.141,1.055,0.188
			c-0.031,0.141-0.063,0.313-0.094,0.516s-0.059,0.41-0.082,0.621s-0.043,0.402-0.059,0.574s-0.023,0.297-0.023,0.375v6.352
			c0.688-0.063,1.469-0.137,2.344-0.223s1.656-0.191,2.344-0.316l-0.211,1.898c-0.266-0.016-0.582-0.023-0.949-0.023
			s-0.754,0-1.16,0s-0.816,0-1.23,0s-0.793,0-1.137,0v5.297c0,0.484-0.008,1.043-0.023,1.676s-0.043,1.266-0.082,1.898
			s-0.082,1.234-0.129,1.805s-0.094,1.027-0.141,1.371l-1.617,0.211c-0.031-0.25-0.059-0.586-0.082-1.008s-0.047-0.871-0.07-1.348
			s-0.039-0.969-0.047-1.477s-0.012-0.988-0.012-1.441v-3.75c-0.422,0.188-0.863,0.363-1.324,0.527s-0.914,0.32-1.359,0.469
			s-0.875,0.281-1.289,0.398s-0.793,0.207-1.137,0.27c-0.656,0.125-1.16,0.086-1.512-0.117s-0.559-0.469-0.621-0.797
			c-0.609,0.266-1.184,0.496-1.723,0.691s-1.184,0.363-1.934,0.504c-0.828,0.156-1.414,0.074-1.758-0.246s-0.516-0.855-0.516-1.605
			v-6.703c0-0.281-0.023-0.527-0.07-0.738s-0.145-0.391-0.293-0.539s-0.359-0.281-0.633-0.398S0.438,36.568,0,36.443l0.398-0.867
			c1.172,0.188,2.387,0.289,3.645,0.305s2.504-0.109,3.738-0.375c0.625,0.078,1.195,0.125,1.711,0.141s1.027,0.012,1.535-0.012
			s1.023-0.074,1.547-0.152s1.098-0.18,1.723-0.305l-0.328,1.618c-0.703,0.015-1.391,0.023-2.063,0.023s-1.289,0.016-1.852,0.047
			v7.663c0,0.267,0.043,0.45,0.129,0.552s0.207,0.137,0.363,0.105c0.25-0.031,0.566-0.086,0.949-0.164s0.785-0.172,1.207-0.281
			s0.855-0.23,1.301-0.363s0.855-0.262,1.23-0.387V34.123z M7.852,38.248c0-0.313-0.023-0.598-0.07-0.855s-0.125-0.387-0.234-0.387
			c-0.656,0-1.242,0.012-1.758,0.035s-1.039,0.066-1.57,0.129v7.664c0,0.266,0.051,0.445,0.152,0.539s0.23,0.125,0.387,0.094
			c0.578-0.078,1.102-0.172,1.57-0.281s0.977-0.266,1.523-0.469V38.248z"/>
		<path fill="#444444" d="M34.945,42.936c0.781-0.031,1.496-0.055,2.145-0.07s1.168-0.031,1.559-0.047
			c1.047-0.047,2.109-0.121,3.188-0.223s2.047-0.215,2.906-0.34l-0.305,1.922c-0.313-0.016-0.676-0.031-1.09-0.047
			S42.484,44.104,42,44.096s-0.984-0.02-1.5-0.035s-1.031-0.023-1.547-0.023c-0.438,0-0.992,0.004-1.664,0.012
			s-1.402,0.02-2.191,0.035s-1.598,0.035-2.426,0.059s-1.613,0.051-2.355,0.082s-1.41,0.059-2.004,0.082s-1.047,0.043-1.359,0.059
			c-0.578,0.031-1.211,0.082-1.898,0.152s-1.305,0.145-1.852,0.223l-0.797-2.039c0.703,0.078,1.457,0.145,2.262,0.199
			s1.559,0.098,2.262,0.129c0.281,0.016,0.637,0.023,1.066,0.023s0.902,0,1.418,0s1.059-0.004,1.629-0.012s1.152-0.02,1.746-0.035
			v-2.133c-0.672-0.078-1.293-0.238-1.863-0.48s-1.063-0.543-1.477-0.902s-0.738-0.773-0.973-1.242s-0.352-0.969-0.352-1.5
			c0-0.547,0.121-1.059,0.363-1.535s0.582-0.898,1.02-1.266s0.953-0.668,1.547-0.902S32.297,32.662,33,32.6
			c-0.031-0.172-0.113-0.313-0.246-0.422s-0.379-0.211-0.738-0.305l0.352-0.68c0.188,0.031,0.398,0.07,0.633,0.117
			s0.48,0.094,0.738,0.141s0.512,0.094,0.762,0.141s0.477,0.094,0.68,0.141c-0.047,0.125-0.098,0.266-0.152,0.422
			s-0.105,0.32-0.152,0.492c0.656,0.094,1.258,0.266,1.805,0.516s1.02,0.555,1.418,0.914s0.707,0.766,0.926,1.219
			s0.328,0.938,0.328,1.453s-0.109,0.996-0.328,1.441s-0.523,0.848-0.914,1.207s-0.855,0.66-1.395,0.902s-1.129,0.418-1.77,0.527
			V42.936z M39.563,51.209c0.172-0.031,0.332-0.051,0.48-0.059s0.285-0.02,0.41-0.035l-0.375,1.711
			c-0.563-0.047-1.25-0.078-2.063-0.094s-1.66-0.027-2.543-0.035s-1.758-0.004-2.625,0.012s-1.652,0.039-2.355,0.07
			c-0.016,0.125-0.031,0.262-0.047,0.41s-0.039,0.301-0.07,0.457l-1.5,0.258c-0.141-0.531-0.227-0.969-0.258-1.313
			s-0.063-0.719-0.094-1.125l-0.281-3.07c-0.016-0.297-0.039-0.531-0.07-0.703s-0.102-0.313-0.211-0.422s-0.266-0.203-0.469-0.281
			s-0.484-0.164-0.844-0.258l0.398-0.844c1.016,0.125,2.078,0.207,3.188,0.246s2.23,0.051,3.363,0.035s2.258-0.055,3.375-0.117
			s2.199-0.133,3.246-0.211c-0.047,0.406-0.098,0.836-0.152,1.289s-0.113,0.914-0.176,1.383s-0.121,0.934-0.176,1.395
			S39.609,50.803,39.563,51.209z M37.055,36.631c0-0.406-0.09-0.793-0.27-1.16s-0.418-0.688-0.715-0.961s-0.645-0.492-1.043-0.656
			s-0.816-0.246-1.254-0.246c-0.453,0-0.883,0.082-1.289,0.246s-0.758,0.383-1.055,0.656s-0.531,0.594-0.703,0.961
			s-0.258,0.754-0.258,1.16c0,0.453,0.086,0.859,0.258,1.219s0.406,0.672,0.703,0.938s0.645,0.469,1.043,0.609
			s0.832,0.211,1.301,0.211c0.453,0,0.879-0.07,1.277-0.211s0.746-0.344,1.043-0.609s0.531-0.578,0.703-0.938
			S37.055,37.084,37.055,36.631z M37.734,47.342c-0.484-0.016-1.055-0.027-1.711-0.035s-1.32-0.004-1.992,0.012
			s-1.32,0.035-1.945,0.059s-1.148,0.051-1.57,0.082l0.07,3.563c0,0.078,0,0.164,0,0.258s-0.008,0.188-0.023,0.281
			c1.078-0.016,2.254-0.043,3.527-0.082s2.473-0.09,3.598-0.152L37.734,47.342z"/>
	</g>
</g>
</svg>
